Coordinates
version=1
nRows=42
nColumns=11
inDegrees=yes

Units are S.I. units (second, meters, Newtons, ...)
If the header above contains a line with 'inDegrees', this indicates whether rotational values are in degrees (yes) or radians (no).

endheader
time	pelvis_tilt	pelvis_tx	pelvis_ty	hip_flexion_l	hip_flexion_r	knee_angle_l	knee_angle_r	ankle_angle_l	ankle_angle_r	lumbar_extension
      2.46000000	     -5.53302300	     -0.55839762	      0.89549283	     33.85698271	     -0.37624717	    -38.78037417	    -43.45066937	      8.07821258	    -20.21011000	      2.06282788
      2.47000000	     -5.52887062	     -0.54810631	      0.89838272	     32.71014420	      1.14282315	    -38.07334325	    -44.81517821	      8.49784196	    -18.82361144	      1.99658611
      2.48000000	     -5.54398785	     -0.53792273	      0.90136701	     31.53543680	      2.69499010	    -37.25954995	    -45.91117738	      8.71080680	    -17.48464918	      1.94585373
      2.49000000	     -5.60019786	     -0.52789072	      0.90438909	     30.36365213	      4.32607465	    -36.34763022	    -46.80607044	      9.03990547	    -16.16311354	      1.97271232
      2.50000000	     -5.64075280	     -0.51788450	      0.90738641	     29.14721282	      5.95366993	    -35.36663214	    -47.54158549	      9.21638275	    -14.91607018	      1.98149660
      2.51000000	     -5.72303817	     -0.50810111	      0.91027777	     27.92794035	      7.67132285	    -34.25287998	    -48.17498194	      9.30432486	    -13.68750681	      2.02894217
      2.52000000	     -5.75952509	     -0.49840733	      0.91300213	     26.73336176	      9.39360426	    -33.26011149	    -48.73014039	      9.49195353	    -12.61731056	      2.02085814
      2.53000000	     -5.80005832	     -0.48886357	      0.91549256	     25.53336372	     11.14589032	    -32.23120588	    -49.21635259	      9.65419819	    -11.76002709	      1.99903718
      2.54000000	     -5.81539344	     -0.47954902	      0.91772363	     24.36778354	     12.94719475	    -31.26840545	    -49.70416345	      9.78361877	    -10.99940677	      1.92650981
      2.55000000	     -5.80831635	     -0.47054201	      0.91961707	     23.22231432	     14.76968615	    -30.34625859	    -50.16379390	      9.95228085	    -10.16763671	      1.76413057
      2.56000000	     -5.75733942	     -0.46134378	      0.92111955	     22.07250027	     16.53019263	    -29.53296935	    -50.54565233	     10.24044582	     -9.59119623	      1.58604036
      2.57000000	     -5.67821697	     -0.45226273	      0.92223931	     20.97364048	     18.26931840	    -28.85485362	    -50.86231180	     10.56868649	     -9.08498002	      1.35739156
      2.58000000	     -5.53491632	     -0.44332273	      0.92304034	     19.87004655	     19.90805621	    -28.28339409	    -51.02560818	     10.94068046	     -8.64991807	      1.03166727
      2.59000000	     -5.34253311	     -0.43435811	      0.92351273	     18.80039572	     21.47779354	    -27.86433062	    -51.09098154	     11.40183429	     -8.36858018	      0.64800472
      2.60000000	     -5.08880860	     -0.42550257	      0.92371859	     17.72083082	     22.92436912	    -27.54003288	    -51.06204233	     11.88745618	     -7.58864632	      0.17761820
      2.61000000	     -4.77875468	     -0.41642106	      0.92361459	     16.65270284	     24.22179019	    -27.37656547	    -50.82083004	     12.43443957	     -7.41927240	     -0.32210520
      2.62000000	     -4.42103161	     -0.40738415	      0.92327232	     15.59003865	     25.39427340	    -27.31220880	    -50.37061527	     12.98193665	     -7.20487227	     -0.89280156
      2.63000000	     -3.92920411	     -0.39813177	      0.92282684	     14.43183094	     26.29919747	    -27.36406662	    -49.68840786	     13.58231908	     -7.00368987	     -1.57596902
      2.64000000	     -3.36024696	     -0.38872439	      0.92216550	     13.24976953	     27.00417545	    -27.54891754	    -48.77639976	     14.22152848	     -6.78278341	     -2.32532870
      2.65000000	     -2.69992710	     -0.37919110	      0.92135632	     12.01937175	     27.48106559	    -27.83941270	    -47.62248792	     14.98750883	     -6.56495379	     -3.16787089
      2.66000000	     -1.96044961	     -0.36939608	      0.92042275	     10.71487212	     27.70932557	    -28.20490012	    -46.18447256	     15.83866857	     -6.39992776	     -4.05646245
      2.67000000	     -1.16050580	     -0.35946409	      0.91939924	      9.33217195	     27.71826930	    -28.57013633	    -44.49234847	     16.66799807	     -6.21250990	     -4.99062685
      2.68000000	     -0.31701189	     -0.34926034	      0.91831155	      7.77122410	     27.49720836	    -28.73656289	    -42.51066754	     17.51861117	     -6.23016115	     -5.93610759
      2.69000000	      0.57578680	     -0.33875671	      0.91711319	      6.21196392	     27.05682504	    -29.05026421	    -40.23433041	     18.40096975	     -6.23612527	     -6.88632316
      2.70000000	      1.43477071	     -0.32805887	      0.91570316	      4.69150420	     26.53267788	    -29.39931578	    -37.83359868	     19.29156024	     -6.32166769	     -7.76464048
      2.71000000	      2.30344831	     -0.31715388	      0.91423417	      3.11878547	     25.83212927	    -29.69627123	    -35.19557708	     20.14335635	     -6.41137053	     -8.62661040
      2.72000000	      3.06085921	     -0.30609451	      0.91247958	      1.65825094	     25.16669688	    -30.00990355	    -32.49386013	     20.99560520	     -6.38549144	     -9.33089362
      2.73000000	      3.73723438	     -0.29487509	      0.91059729	      0.26132885	     24.50315549	    -30.29497999	    -29.79359610	     21.77360330	     -6.24787015	     -9.92144741
      2.74000000	      4.34839319	     -0.28339184	      0.90857237	     -1.09467540	     23.81010766	    -30.56970324	    -27.08647646	     22.50476091	     -6.07563871	    -10.40810715
      2.75000000	      4.79763264	     -0.27187766	      0.90649168	     -2.28914527	     23.28899087	    -30.80761052	    -24.56287625	     23.14118836	     -5.93814103	    -10.71318262
      2.76000000	      5.15308488	     -0.26019675	      0.90432020	     -3.39839722	     22.83661953	    -31.04265035	    -22.29131798	     23.71286474	     -5.73491238	    -10.88954514
      2.77000000	      5.36656926	     -0.24842181	      0.90210092	     -4.31897190	     22.56910262	    -31.34238099	    -20.38722427	     24.07831104	     -5.60797914	    -10.89444175
      2.78000000	      5.51293274	     -0.23656530	      0.90002901	     -5.15129809	     22.34179616	    -31.67216542	    -18.75977929	     24.32617551	     -5.60622497	    -10.83163201
      2.79000000	      5.55796329	     -0.22451072	      0.89797159	     -5.84012064	     22.20906378	    -32.07791348	    -17.53480822	     24.40332996	     -5.75581365	    -10.64314695
      2.80000000	      5.54511445	     -0.21235177	      0.89613569	     -6.42696601	     22.10770108	    -32.53391849	    -16.65187699	     24.16697242	     -6.04095907	    -10.39363263
      2.81000000	      5.40585688	     -0.20011806	      0.89432323	     -6.77322517	     22.14301849	    -33.20675453	    -16.17451001	     23.81371898	     -6.34775613	    -10.01112819
      2.82000000	      5.27906593	     -0.18759375	      0.89279287	     -7.13771760	     22.04583098	    -33.83185335	    -15.93501605	     23.21953114	     -6.58187295	     -9.62877453
      2.83000000	      5.14815867	     -0.17477626	      0.89151526	     -7.44195401	     21.83801231	    -34.53281185	    -15.88421533	     22.37972691	     -6.83675310	     -9.22785607
      2.84000000	      5.02861843	     -0.16155869	      0.89044504	     -7.73948970	     21.50345714	    -35.25723541	    -15.98664735	     21.14137818	     -7.07270050	     -8.81182116
      2.85000000	      4.85244045	     -0.14791645	      0.88935260	     -7.96902613	     21.05618661	    -36.04064516	    -16.12421783	     19.95867579	     -7.23850468	     -8.30308241
      2.86000000	      4.60010905	     -0.13411055	      0.88841332	     -8.02471206	     20.62488689	    -36.92649523	    -16.41572774	     18.45217043	     -8.08378400	     -7.70353459
      2.87000000	      3.89253488	     -0.12095769	      0.88761187	     -7.39702874	     21.09821609	    -37.98596187	    -17.53950738	     16.39342473	     -8.46414683	     -6.69398199
